PathFileType	4	(X/Y/Z)	OpenSim_Sub09_CSStiffKnee_Accel.trc
DataRate	CameraRate	NumFrames	NumMarkers	Units	OrigDataRate	OrigDataStartFrame	OrigNumFrames
100	100	23	8	m	100	4455	7127
Frame#	Time	torso_imu_offset_imu	pelvis_imu_offset_imu	tibia_r_imu_offset_imu	femur_r_imu_offset_imu	tibia_l_imu_offset_imu	femur_l_imu_offset_imu	toes_r_imu_offset_imu	toes_l_imu_offset_imu
				X1	Y1	Z1	X2	Y2	Z2	X3	Y3	Z3	X4	Y4	Z4	X5	Y5	Z5	X6	Y6	Z6	X7	Y7	Z7	X8		Y8	Z8	

4455	44.54000000	12.26478583	1.65953365	7.42523701	13.01803210	3.59927389	6.39825168	7.18783232	3.57517079	0.83204439	18.30565414	-1.00575006	3.68283533	10.78887351	-0.59147999	2.94654435	12.09875755	-2.00969658	0.58131833	16.10632770	-6.33006027	8.45096798	6.85850987	2.38974384	11.01455187
4456	44.55000000	13.23198155	1.12264122	6.62545127	10.66924960	0.28242064	5.88722387	5.98409081	6.89830472	-2.17072435	10.12004410	-1.65041120	0.77171595	10.94313461	-2.32827756	2.42388826	12.60709543	-2.44025061	0.25776514	20.33886526	-7.56133498	9.77899918	6.88345033	2.23934825	11.26729240
4457	44.56000000	13.92688222	0.38019338	6.05380838	11.31686889	-1.72657474	5.69704000	6.85170446	8.45960920	-4.34696964	5.15771714	-0.29042246	-0.77878079	11.77118150	-4.16155920	1.95533719	13.32375692	-2.59312521	-0.13330369	8.71545789	-4.84007534	7.90315126	8.67783276	1.74861809	11.70528515
4458	44.57000000	14.15543449	-0.29833243	5.56522788	11.64493033	-2.70905381	5.10475602	8.30325102	8.45888837	-6.48061711	3.66291532	2.02971396	0.58779302	12.27456486	-5.32872063	1.68256623	13.60183888	-2.73023412	-0.35137627	7.85193714	-4.07333871	8.91657749	10.12330724	1.57360660	11.86529465
4459	44.58000000	13.92465187	-0.94005283	4.92232819	11.14028651	-3.34041642	5.40191053	8.84790344	8.75105940	-10.40056310	3.39397773	3.47272074	1.75353047	11.88152263	-5.70502808	1.84625103	13.01224035	-2.89769580	-0.36081789	10.00938515	-3.56409014	8.81703937	11.51790208	1.84889203	12.51414307
4460	44.59000000	13.60657109	-1.26309141	4.43241570	11.11971665	-3.85997916	6.18327650	8.49206621	12.48410941	-6.48999027	4.67220049	3.94458401	1.16669401	11.05051461	-4.91046970	1.21502602	12.42918978	-2.47580618	-0.42688873	7.47158588	-5.32940015	7.94608743	12.75337310	3.06563438	12.98248475
4461	44.60000000	13.66073756	-1.19654341	4.45730600	11.03589176	-3.88278380	6.50832763	7.84401592	17.34671682	-0.43579225	7.22700005	4.25919696	-0.38631845	10.51044161	-3.10400110	0.76899328	11.57145712	-2.05977330	-0.06458219	6.54908725	-2.54623492	9.18112949	14.49030521	3.75010934	13.69065998
4462	44.61000000	13.50725060	-1.11091855	4.49200889	10.94382324	-3.28520635	6.58932958	7.61353755	17.45146764	-0.45087608	9.61955475	3.44929883	-2.26439007	10.50398362	-1.48345435	1.41869515	11.67344915	-1.54817892	0.83889204	7.01186839	-1.18549142	8.45125442	13.75035584	3.17120201	13.86156865
4463	44.62000000	12.70062030	-1.19863283	4.31442418	11.00575389	-2.34048916	6.45832187	8.04487200	12.53590928	-0.55407749	11.28427809	1.90466026	-2.30454276	10.49024139	-0.95311917	1.90545118	11.77948125	-1.47294800	1.82140798	6.60259847	-1.14856584	8.38770289	12.28821709	4.62933672	12.31282519
4464	44.63000000	11.80768307	-1.28908273	4.26788193	10.68667804	-1.40730135	6.30803356	9.49816896	5.17240947	0.84041221	12.30393287	-0.27680241	-0.90903548	9.50280249	-1.87404426	2.47394703	11.49042392	-1.65194851	2.54927085	6.05244981	-0.47331424	8.98696511	8.87236193	6.44824535	9.46323303
4465	44.64000000	11.18332890	-1.41572245	4.22967256	10.09954973	-0.50572346	6.14113541	11.87356722	-2.06751414	0.77475928	13.53926028	-2.86489050	0.04349918	7.68429745	-3.36088012	1.88276337	10.42693733	-1.49223006	2.75918334	5.97874166	-0.23387599	8.96948440	4.97615313	7.20246795	8.11201202
4466	44.65000000	10.54062342	-1.53339960	4.16369835	9.42262823	0.28586548	6.27301918	12.51259056	-5.74813841	0.24432681	14.48594424	-3.99369263	0.67894894	5.69512882	-5.64696669	0.92195831	8.94367945	-1.18868418	2.27382364	6.08974370	-0.50038137	8.54382832	4.76976969	7.50259564	8.59908020
4467	44.66000000	9.99729111	-1.65980733	3.97272392	8.79338315	0.84799661	6.33788876	11.65119046	-4.14146609	0.47931768	13.75592781	-3.30588624	1.21208462	4.68859998	-8.30841688	0.01121289	8.26490137	-1.34776227	1.83884183	6.28698719	-0.89855516	8.24274879	2.24611145	4.47086838	15.97404413
4468	44.67000000	9.70459122	-1.89759076	3.82814639	8.21131633	1.03961146	6.29217498	10.70739479	0.55417588	0.42911090	11.85563249	-1.96711356	1.24382683	4.59855101	-11.66939871	-1.13757671	8.43928647	-1.42584160	1.57245198	5.77677497	-0.83039134	8.50665833	6.41863800	10.29833560	23.12997014
4469	44.68000000	9.56654545	-2.11439266	3.72825420	7.81732967	0.90124585	6.21807065	9.86513306	6.06289985	0.70141505	10.09291183	-0.95701206	0.88930085	4.14041391	-13.72550223	-2.12540459	9.43983150	-1.67589746	1.31303078	5.28959919	-1.07625397	8.73905147	-4.22090321	13.05201817	18.37913190
4470	44.69000000	9.48050088	-2.07260405	3.65940386	7.60849318	0.64371147	5.89254580	8.82489915	10.25961470	0.01655276	9.18577461	-0.49529816	0.72154522	4.14552189	-10.51581156	-1.33326091	11.13725514	-1.45313151	0.48750438	5.19621066	-2.37114576	8.36641784	-10.85951315	10.61388038	15.42764105
4471	44.70000000	9.27236118	-1.80863438	3.48323940	7.43466459	0.49240269	5.61662819	7.67772673	11.36242449	-0.53303117	8.55890470	-0.34159485	0.81855780	4.18202312	-5.04406447	0.46604766	12.06620242	-1.40167958	-0.29266521	5.19990693	-3.79006896	7.68944420	-3.24077392	8.20930289	18.57203462
4472	44.71000000	8.84662311	-1.40868144	3.35137629	7.20841920	0.21128899	5.46274286	7.61480909	7.84824738	-0.81388522	7.93335323	-0.30219724	0.77345755	2.78959496	-3.26634875	1.58873621	12.18633658	-1.84562990	-0.31468980	5.20427731	-2.79818920	7.96690043	-1.56391843	6.23466185	19.22371409
4473	44.72000000	8.60460275	-1.00460176	3.25495086	6.84742417	-0.03751593	5.38729539	9.01233452	2.01654290	-0.03456161	7.45048756	-0.13152747	0.59085966	1.44140658	-4.55629595	1.78570852	11.93677889	-2.63468414	0.05933638	5.36574113	-2.10046655	8.07622165	-3.87990164	4.17005062	17.87201543
4474	44.73000000	8.74277365	-0.75019768	3.31237398	6.65316922	0.09640583	5.33699245	10.86062973	-3.06531372	0.23018648	7.61294714	0.51823249	0.31767711	1.73946515	-5.53150075	1.79423011	11.32260192	-3.12472976	0.44559826	5.41208457	-1.98639292	8.06669896	-3.54020621	2.61665256	16.89800876
4475	44.74000000	8.88127600	-0.62271170	3.37917128	6.63689618	0.37444296	5.33566325	11.61870206	-5.15681489	0.50807185	8.03068735	1.35503992	0.22773936	3.33679914	-5.88551715	1.36890272	10.19234615	-2.92001431	0.59635397	5.67122585	-1.74346035	8.02477712	-1.59408518	1.80679366	16.20019240
4476	44.75000000	8.82550203	-0.48207794	3.43197686	6.72395093	0.57019679	5.40596293	10.85893264	-3.84258696	0.49183744	8.35818055	1.68112183	0.53950092	4.90110703	-5.85667726	0.90815181	9.32753401	-2.93693538	0.87961128	5.62529682	-1.70546150	8.09088203	0.84473773	1.66126276	15.65570501
4477	44.76000000	8.66639333	-0.53019601	3.35638292	6.78644425	0.63849625	5.43227503	9.78674826	-0.45969990	0.36371437	8.59296969	1.15752896	0.78756128	5.92000742	-5.71304098	1.04333811	8.80506103	-2.58039442	1.07564035	5.48158834	-1.98991728	8.15881192	2.78443949	2.08918857	15.04903485
